<mxfile host="app.diagrams.net" agent="Mozilla/5.0 (Windows NT 10.0; Win64; x64) AppleWebKit/537.36 (KHTML, like Gecko) Chrome/135.0.0.0 Safari/537.36" version="26.2.12">
  <diagram name="Page-1" id="P7yvKGMjlyaLnuh8JhLo">
    <mxGraphModel dx="1680" dy="921" grid="0" gridSize="10" guides="0" tooltips="1" connect="1" arrows="1" fold="1" page="1" pageScale="1" pageWidth="827" pageHeight="1169" math="0" shadow="0">
      <root>
        <mxCell id="0" />
        <mxCell id="1" parent="0" />
        <mxCell id="ygefGbPyXmo3I8IUyl0K-16" value="" style="endArrow=classic;html=1;rounded=0;flowAnimation=1;" edge="1" parent="1">
          <mxGeometry width="50" height="50" relative="1" as="geometry">
            <mxPoint x="80" y="50" as="sourcePoint" />
            <mxPoint x="190" y="50" as="targetPoint" />
          </mxGeometry>
        </mxCell>
        <mxCell id="ygefGbPyXmo3I8IUyl0K-17" value="" style="endArrow=classic;html=1;rounded=0;flowAnimation=1;" edge="1" parent="1">
          <mxGeometry width="50" height="50" relative="1" as="geometry">
            <mxPoint x="260" y="36" as="sourcePoint" />
            <mxPoint x="362.86" y="36" as="targetPoint" />
          </mxGeometry>
        </mxCell>
        <mxCell id="ygefGbPyXmo3I8IUyl0K-18" value="" style="endArrow=classic;html=1;rounded=0;flowAnimation=1;" edge="1" parent="1">
          <mxGeometry width="50" height="50" relative="1" as="geometry">
            <mxPoint x="360" y="60" as="sourcePoint" />
            <mxPoint x="260" y="60" as="targetPoint" />
          </mxGeometry>
        </mxCell>
        <mxCell id="ygefGbPyXmo3I8IUyl0K-20" value="" style="endArrow=classic;html=1;rounded=0;flowAnimation=1;" edge="1" parent="1">
          <mxGeometry width="50" height="50" relative="1" as="geometry">
            <mxPoint x="216.26" y="70" as="sourcePoint" />
            <mxPoint x="216" y="170" as="targetPoint" />
          </mxGeometry>
        </mxCell>
        <mxCell id="ygefGbPyXmo3I8IUyl0K-30" value="" style="image;aspect=fixed;html=1;points=[];align=center;fontSize=12;image=img/lib/azure2/management_governance/Scheduler_Job_Collections.svg;" vertex="1" parent="1">
          <mxGeometry x="440" y="346" width="63.76" height="60" as="geometry" />
        </mxCell>
        <mxCell id="ygefGbPyXmo3I8IUyl0K-34" value="" style="endArrow=classic;html=1;rounded=0;flowAnimation=1;" edge="1" parent="1">
          <mxGeometry width="50" height="50" relative="1" as="geometry">
            <mxPoint x="282" y="390" as="sourcePoint" />
            <mxPoint x="402" y="390" as="targetPoint" />
          </mxGeometry>
        </mxCell>
        <mxCell id="ygefGbPyXmo3I8IUyl0K-36" value="" style="rounded=0;whiteSpace=wrap;html=1;" vertex="1" parent="1">
          <mxGeometry x="390" y="750" width="180" height="60" as="geometry" />
        </mxCell>
        <mxCell id="ygefGbPyXmo3I8IUyl0K-35" value="" style="verticalLabelPosition=bottom;html=1;verticalAlign=top;align=center;strokeColor=none;fillColor=#00BEF2;shape=mxgraph.azure.user;" vertex="1" parent="1">
          <mxGeometry x="402" y="758" width="38" height="40" as="geometry" />
        </mxCell>
        <mxCell id="ygefGbPyXmo3I8IUyl0K-37" value="" style="verticalLabelPosition=bottom;html=1;verticalAlign=top;align=center;strokeColor=none;fillColor=#00BEF2;shape=mxgraph.azure.user;" vertex="1" parent="1">
          <mxGeometry x="510" y="760" width="38" height="40" as="geometry" />
        </mxCell>
        <mxCell id="ygefGbPyXmo3I8IUyl0K-38" value="" style="verticalLabelPosition=bottom;html=1;verticalAlign=top;align=center;strokeColor=none;fillColor=#00BEF2;shape=mxgraph.azure.user;" vertex="1" parent="1">
          <mxGeometry x="456" y="760" width="38" height="40" as="geometry" />
        </mxCell>
        <mxCell id="ygefGbPyXmo3I8IUyl0K-40" value="" style="endArrow=classic;html=1;rounded=0;flowAnimation=1;" edge="1" parent="1">
          <mxGeometry width="50" height="50" relative="1" as="geometry">
            <mxPoint x="471.46" y="410" as="sourcePoint" />
            <mxPoint x="471" y="530" as="targetPoint" />
          </mxGeometry>
        </mxCell>
        <mxCell id="ygefGbPyXmo3I8IUyl0K-41" value="&lt;font style=&quot;font-size: 11px;&quot;&gt;Recipient Manager&lt;/font&gt;" style="text;html=1;align=center;verticalAlign=middle;whiteSpace=wrap;rounded=0;" vertex="1" parent="1">
          <mxGeometry x="425" y="818" width="110" height="30" as="geometry" />
        </mxCell>
        <mxCell id="ygefGbPyXmo3I8IUyl0K-47" value="" style="html=1;verticalLabelPosition=bottom;align=center;labelBackgroundColor=#ffffff;verticalAlign=top;strokeWidth=2;strokeColor=#0080F0;shadow=0;dashed=0;shape=mxgraph.ios7.icons.alarm_clock;" vertex="1" parent="1">
          <mxGeometry x="40" y="36" width="27" height="30" as="geometry" />
        </mxCell>
        <mxCell id="ygefGbPyXmo3I8IUyl0K-48" value="" style="image;sketch=0;aspect=fixed;html=1;points=[];align=center;fontSize=12;image=img/lib/mscae/Cache_Redis_Product.svg;" vertex="1" parent="1">
          <mxGeometry x="200.00000000000003" y="24" width="50" height="42" as="geometry" />
        </mxCell>
        <mxCell id="ygefGbPyXmo3I8IUyl0K-50" value="" style="image;html=1;image=img/lib/clip_art/computers/Database_128x128.png" vertex="1" parent="1">
          <mxGeometry x="374" y="20" width="80" height="50" as="geometry" />
        </mxCell>
        <mxCell id="ygefGbPyXmo3I8IUyl0K-51" value="" style="verticalLabelPosition=bottom;sketch=0;aspect=fixed;html=1;verticalAlign=top;strokeColor=none;align=center;outlineConnect=0;shape=mxgraph.citrix.process;" vertex="1" parent="1">
          <mxGeometry x="198.92" y="180" width="38.16" height="45.49" as="geometry" />
        </mxCell>
        <mxCell id="ygefGbPyXmo3I8IUyl0K-52" value="" style="verticalLabelPosition=bottom;sketch=0;aspect=fixed;html=1;verticalAlign=top;strokeColor=none;align=center;outlineConnect=0;shape=mxgraph.citrix.process;" vertex="1" parent="1">
          <mxGeometry x="454.00000000000006" y="550" width="38.16" height="45.49" as="geometry" />
        </mxCell>
        <mxCell id="ygefGbPyXmo3I8IUyl0K-53" value="&lt;font&gt;Queue: Automation Settings&lt;/font&gt;" style="image;aspect=fixed;html=1;points=[];align=center;fontSize=12;image=img/lib/azure2/general/Storage_Queue.svg;" vertex="1" parent="1">
          <mxGeometry x="192.99999999999997" y="350" width="64" height="52" as="geometry" />
        </mxCell>
        <mxCell id="ygefGbPyXmo3I8IUyl0K-55" value="" style="endArrow=classic;html=1;rounded=0;flowAnimation=1;" edge="1" parent="1">
          <mxGeometry width="50" height="50" relative="1" as="geometry">
            <mxPoint x="218.01999999999998" y="240" as="sourcePoint" />
            <mxPoint x="217.76" y="340" as="targetPoint" />
          </mxGeometry>
        </mxCell>
        <mxCell id="ygefGbPyXmo3I8IUyl0K-56" value="" style="endArrow=classic;html=1;rounded=0;flowAnimation=1;" edge="1" parent="1">
          <mxGeometry width="50" height="50" relative="1" as="geometry">
            <mxPoint x="402" y="356" as="sourcePoint" />
            <mxPoint x="286" y="356" as="targetPoint" />
          </mxGeometry>
        </mxCell>
        <mxCell id="ygefGbPyXmo3I8IUyl0K-57" value="" style="endArrow=classic;html=1;rounded=0;flowAnimation=1;" edge="1" parent="1">
          <mxGeometry width="50" height="50" relative="1" as="geometry">
            <mxPoint x="471.91999999999996" y="610" as="sourcePoint" />
            <mxPoint x="471.46" y="730" as="targetPoint" />
          </mxGeometry>
        </mxCell>
        <mxCell id="ygefGbPyXmo3I8IUyl0K-58" value="" style="endArrow=classic;html=1;rounded=0;flowAnimation=1;" edge="1" parent="1">
          <mxGeometry width="50" height="50" relative="1" as="geometry">
            <mxPoint x="590" y="778" as="sourcePoint" />
            <mxPoint x="700" y="778" as="targetPoint" />
          </mxGeometry>
        </mxCell>
        <mxCell id="ygefGbPyXmo3I8IUyl0K-59" value="&lt;font&gt;Queue: Recipient&lt;/font&gt;" style="image;aspect=fixed;html=1;points=[];align=center;fontSize=12;image=img/lib/azure2/general/Storage_Queue.svg;" vertex="1" parent="1">
          <mxGeometry x="726" y="748" width="64" height="52" as="geometry" />
        </mxCell>
        <mxCell id="ygefGbPyXmo3I8IUyl0K-60" value="" style="endArrow=classic;html=1;rounded=0;flowAnimation=1;" edge="1" parent="1">
          <mxGeometry width="50" height="50" relative="1" as="geometry">
            <mxPoint x="923.76" y="758.3" as="sourcePoint" />
            <mxPoint x="803.76" y="758" as="targetPoint" />
          </mxGeometry>
        </mxCell>
        <mxCell id="ygefGbPyXmo3I8IUyl0K-61" value="" style="endArrow=classic;html=1;rounded=0;flowAnimation=1;" edge="1" parent="1">
          <mxGeometry width="50" height="50" relative="1" as="geometry">
            <mxPoint x="803.76" y="790" as="sourcePoint" />
            <mxPoint x="923.76" y="790" as="targetPoint" />
          </mxGeometry>
        </mxCell>
        <mxCell id="ygefGbPyXmo3I8IUyl0K-63" value="" style="image;aspect=fixed;html=1;points=[];align=center;fontSize=12;image=img/lib/azure2/management_governance/Scheduler_Job_Collections.svg;" vertex="1" parent="1">
          <mxGeometry x="940" y="740" width="63.76" height="60" as="geometry" />
        </mxCell>
        <mxCell id="ygefGbPyXmo3I8IUyl0K-64" value="" style="verticalLabelPosition=bottom;sketch=0;aspect=fixed;html=1;verticalAlign=top;strokeColor=none;align=center;outlineConnect=0;shape=mxgraph.citrix.process;" vertex="1" parent="1">
          <mxGeometry x="952.8" y="550" width="38.16" height="45.49" as="geometry" />
        </mxCell>
        <mxCell id="ygefGbPyXmo3I8IUyl0K-65" value="" style="endArrow=classic;html=1;rounded=0;flowAnimation=1;" edge="1" parent="1">
          <mxGeometry width="50" height="50" relative="1" as="geometry">
            <mxPoint x="970" y="730" as="sourcePoint" />
            <mxPoint x="970" y="610" as="targetPoint" />
          </mxGeometry>
        </mxCell>
        <mxCell id="ygefGbPyXmo3I8IUyl0K-67" value="" style="html=1;verticalLabelPosition=bottom;align=center;labelBackgroundColor=#ffffff;verticalAlign=top;strokeWidth=2;strokeColor=#0080F0;shadow=0;dashed=0;shape=mxgraph.ios7.icons.locked;" vertex="1" parent="1">
          <mxGeometry x="290" y="557.75" width="24" height="30" as="geometry" />
        </mxCell>
        <mxCell id="ygefGbPyXmo3I8IUyl0K-68" value="" style="endArrow=classic;html=1;rounded=0;flowAnimation=1;" edge="1" parent="1">
          <mxGeometry width="50" height="50" relative="1" as="geometry">
            <mxPoint x="446" y="580" as="sourcePoint" />
            <mxPoint x="330" y="580" as="targetPoint" />
          </mxGeometry>
        </mxCell>
        <mxCell id="ygefGbPyXmo3I8IUyl0K-69" value="" style="image;html=1;image=img/lib/clip_art/computers/Database_128x128.png" vertex="1" parent="1">
          <mxGeometry x="923.76" y="356" width="80" height="50" as="geometry" />
        </mxCell>
        <mxCell id="ygefGbPyXmo3I8IUyl0K-70" value="" style="endArrow=classic;html=1;rounded=0;flowAnimation=1;" edge="1" parent="1">
          <mxGeometry width="50" height="50" relative="1" as="geometry">
            <mxPoint x="980.46" y="420" as="sourcePoint" />
            <mxPoint x="980" y="540" as="targetPoint" />
          </mxGeometry>
        </mxCell>
        <mxCell id="ygefGbPyXmo3I8IUyl0K-71" value="" style="endArrow=classic;html=1;rounded=0;flowAnimation=1;" edge="1" parent="1">
          <mxGeometry width="50" height="50" relative="1" as="geometry">
            <mxPoint x="952.8" y="540" as="sourcePoint" />
            <mxPoint x="952.8" y="420" as="targetPoint" />
          </mxGeometry>
        </mxCell>
        <mxCell id="ygefGbPyXmo3I8IUyl0K-72" value="" style="image;sketch=0;aspect=fixed;html=1;points=[];align=center;fontSize=12;image=img/lib/mscae/Cache_Redis_Product.svg;" vertex="1" parent="1">
          <mxGeometry x="10.000000000000028" y="356" width="50" height="42" as="geometry" />
        </mxCell>
        <mxCell id="ygefGbPyXmo3I8IUyl0K-73" value="" style="endArrow=classic;html=1;rounded=0;flowAnimation=1;" edge="1" parent="1">
          <mxGeometry width="50" height="50" relative="1" as="geometry">
            <mxPoint x="183" y="356" as="sourcePoint" />
            <mxPoint x="67" y="356" as="targetPoint" />
          </mxGeometry>
        </mxCell>
        <mxCell id="ygefGbPyXmo3I8IUyl0K-74" value="" style="endArrow=classic;html=1;rounded=0;flowAnimation=1;" edge="1" parent="1">
          <mxGeometry width="50" height="50" relative="1" as="geometry">
            <mxPoint x="67" y="390" as="sourcePoint" />
            <mxPoint x="187" y="390" as="targetPoint" />
          </mxGeometry>
        </mxCell>
        <mxCell id="ygefGbPyXmo3I8IUyl0K-75" value="" style="image;sketch=0;aspect=fixed;html=1;points=[];align=center;fontSize=12;image=img/lib/mscae/Cache_Redis_Product.svg;" vertex="1" parent="1">
          <mxGeometry x="740" y="970" width="50" height="42" as="geometry" />
        </mxCell>
        <mxCell id="ygefGbPyXmo3I8IUyl0K-76" value="" style="endArrow=classic;html=1;rounded=0;flowAnimation=1;" edge="1" parent="1">
          <mxGeometry width="50" height="50" relative="1" as="geometry">
            <mxPoint x="771.47" y="830" as="sourcePoint" />
            <mxPoint x="771.01" y="950" as="targetPoint" />
          </mxGeometry>
        </mxCell>
        <mxCell id="ygefGbPyXmo3I8IUyl0K-77" value="" style="endArrow=classic;html=1;rounded=0;flowAnimation=1;" edge="1" parent="1">
          <mxGeometry width="50" height="50" relative="1" as="geometry">
            <mxPoint x="743.81" y="950" as="sourcePoint" />
            <mxPoint x="743.81" y="830" as="targetPoint" />
          </mxGeometry>
        </mxCell>
        <mxCell id="ygefGbPyXmo3I8IUyl0K-82" value="" style="sketch=0;outlineConnect=0;fontColor=#232F3E;gradientColor=none;fillColor=#DD344C;strokeColor=none;dashed=0;verticalLabelPosition=bottom;verticalAlign=top;align=center;html=1;fontSize=12;fontStyle=0;aspect=fixed;shape=mxgraph.aws4.email;" vertex="1" parent="1">
          <mxGeometry x="1370" y="534.99" width="78" height="69" as="geometry" />
        </mxCell>
        <mxCell id="ygefGbPyXmo3I8IUyl0K-83" value="" style="endArrow=classic;html=1;rounded=0;flowAnimation=1;" edge="1" parent="1">
          <mxGeometry width="50" height="50" relative="1" as="geometry">
            <mxPoint x="1003.76" y="572.31" as="sourcePoint" />
            <mxPoint x="1123.76" y="572.31" as="targetPoint" />
          </mxGeometry>
        </mxCell>
        <mxCell id="ygefGbPyXmo3I8IUyl0K-84" value="&lt;font style=&quot;font-size: 11px;&quot;&gt;Lock or Close Attendance&lt;/font&gt;" style="text;html=1;align=center;verticalAlign=middle;whiteSpace=wrap;rounded=0;" vertex="1" parent="1">
          <mxGeometry x="243" y="597.25" width="147" height="30" as="geometry" />
        </mxCell>
        <mxCell id="ygefGbPyXmo3I8IUyl0K-85" value="&lt;font&gt;Queue: Notification&lt;/font&gt;" style="image;aspect=fixed;html=1;points=[];align=center;fontSize=12;image=img/lib/azure2/general/Storage_Queue.svg;" vertex="1" parent="1">
          <mxGeometry x="1150" y="543.49" width="64" height="52" as="geometry" />
        </mxCell>
        <mxCell id="ygefGbPyXmo3I8IUyl0K-86" value="" style="image;sketch=0;aspect=fixed;html=1;points=[];align=center;fontSize=12;image=img/lib/mscae/Cache_Redis_Product.svg;" vertex="1" parent="1">
          <mxGeometry x="1164" y="756" width="50" height="42" as="geometry" />
        </mxCell>
        <mxCell id="ygefGbPyXmo3I8IUyl0K-87" value="" style="endArrow=classic;html=1;rounded=0;flowAnimation=1;" edge="1" parent="1">
          <mxGeometry width="50" height="50" relative="1" as="geometry">
            <mxPoint x="1201.47" y="627.25" as="sourcePoint" />
            <mxPoint x="1201.01" y="747.25" as="targetPoint" />
          </mxGeometry>
        </mxCell>
        <mxCell id="ygefGbPyXmo3I8IUyl0K-88" value="" style="endArrow=classic;html=1;rounded=0;flowAnimation=1;" edge="1" parent="1">
          <mxGeometry width="50" height="50" relative="1" as="geometry">
            <mxPoint x="1173.81" y="747.25" as="sourcePoint" />
            <mxPoint x="1173.81" y="627.25" as="targetPoint" />
          </mxGeometry>
        </mxCell>
        <mxCell id="ygefGbPyXmo3I8IUyl0K-89" value="" style="endArrow=classic;html=1;rounded=0;flowAnimation=1;" edge="1" parent="1">
          <mxGeometry width="50" height="50" relative="1" as="geometry">
            <mxPoint x="1230" y="569.1199999999999" as="sourcePoint" />
            <mxPoint x="1350" y="569.1199999999999" as="targetPoint" />
          </mxGeometry>
        </mxCell>
        <mxCell id="ygefGbPyXmo3I8IUyl0K-90" value="&lt;font style=&quot;font-size: 11px;&quot;&gt;Storage: Messages&lt;/font&gt;" style="text;html=1;align=center;verticalAlign=middle;whiteSpace=wrap;rounded=0;" vertex="1" parent="1">
          <mxGeometry x="1003.76" y="362" width="110" height="30" as="geometry" />
        </mxCell>
        <mxCell id="ygefGbPyXmo3I8IUyl0K-91" value="&lt;font style=&quot;font-size: 11px;&quot;&gt;Storage: Automation Data&lt;/font&gt;" style="text;html=1;align=center;verticalAlign=middle;whiteSpace=wrap;rounded=0;" vertex="1" parent="1">
          <mxGeometry x="348" y="80" width="146" height="30" as="geometry" />
        </mxCell>
      </root>
    </mxGraphModel>
  </diagram>
</mxfile>
